<svg width="156" height="32" viewBox="0 0 156 32" fill="none" xmlns="http://www.w3.org/2000/svg">
<g clip-path="url(#clip0_1397_10937)">
<rect x="0.395508" y="0.474609" width="30.6797" height="30.6797" rx="15.3398" fill="#F26869"/>
<path fill-rule="evenodd" clip-rule="evenodd" d="M29.1141 18.9986C30.9895 17.2159 31.0556 14.3639 29.2836 12.4785C26.3557 9.36327 21.3804 5.19067 15.7352 5.19067C10.09 5.19067 5.11471 9.36327 2.18684 12.4785C0.414779 14.3639 0.480893 17.2159 2.3563 18.9986C5.30442 21.8009 10.1975 25.4382 15.7352 25.4382C21.2729 25.4382 26.166 21.8009 29.1141 18.9986ZM15.7352 22.9997C19.7036 22.9997 22.9206 19.7827 22.9206 15.8143C22.9206 11.8459 19.7036 8.62891 15.7352 8.62891C11.7668 8.62891 8.5498 11.8459 8.5498 15.8143C8.5498 19.7827 11.7668 22.9997 15.7352 22.9997Z" fill="#FFCD83"/>
<path fill-rule="evenodd" clip-rule="evenodd" d="M15.3814 11.955C15.5769 11.7595 15.894 11.7595 16.0896 11.955L19.5948 15.4602C19.7903 15.6558 19.7903 15.9729 19.5948 16.1684L16.0896 19.6736C15.894 19.8692 15.5769 19.8692 15.3814 19.6736C15.1858 19.4781 15.1858 19.161 15.3814 18.9655L18.0318 16.3151H12.2302C11.9537 16.3151 11.7295 16.0909 11.7295 15.8143C11.7295 15.5378 11.9537 15.3136 12.2302 15.3136H18.0318L15.3814 12.6632C15.1858 12.4676 15.1858 12.1506 15.3814 11.955Z" fill="#FFCD83"/>
<path d="M46.2812 22.3145V9.53445H49.2152V22.3145H46.2812ZM59.9049 9.53445H62.7309V22.3145H60.1209L54.4509 14.3765V22.3145H51.6249V9.53445H54.2349L59.9049 17.4725V9.53445ZM69.2825 22.4765C67.7105 22.4765 66.4925 22.1405 65.6285 21.4685C64.7645 20.7965 64.2725 19.8065 64.1525 18.4985L66.9065 18.1025C66.9785 18.7265 67.2245 19.2065 67.6445 19.5425C68.0645 19.8665 68.6465 20.0285 69.3905 20.0285C70.0265 20.0285 70.5125 19.9205 70.8485 19.7045C71.1965 19.4765 71.3705 19.1585 71.3705 18.7505C71.3705 18.3785 71.1905 18.0845 70.8305 17.8685C70.4705 17.6525 69.8765 17.4485 69.0485 17.2565C68.1605 17.0405 67.4105 16.7825 66.7985 16.4825C66.1865 16.1705 65.7245 15.7685 65.4125 15.2765C65.1005 14.7845 64.9445 14.1605 64.9445 13.4045C64.9445 12.6125 65.1485 11.9105 65.5565 11.2985C65.9645 10.6865 66.5345 10.2125 67.2665 9.87645C67.9985 9.52845 68.8445 9.35445 69.8045 9.35445C71.0525 9.35445 72.0725 9.67245 72.8645 10.3085C73.6565 10.9445 74.1125 11.8145 74.2325 12.9185L71.6585 13.3505C71.5625 12.8585 71.3405 12.4805 70.9925 12.2165C70.6445 11.9405 70.2065 11.8025 69.6785 11.8025C69.1505 11.8025 68.7245 11.9285 68.4005 12.1805C68.0765 12.4205 67.9145 12.7505 67.9145 13.1705C67.9145 13.5545 68.0705 13.8665 68.3825 14.1065C68.6945 14.3345 69.2645 14.5505 70.0925 14.7545C70.9685 14.9705 71.7245 15.2165 72.3605 15.4925C72.9965 15.7565 73.4825 16.1225 73.8185 16.5905C74.1665 17.0585 74.3405 17.6945 74.3405 18.4985C74.3405 19.2785 74.1305 19.9685 73.7105 20.5685C73.2905 21.1685 72.6965 21.6365 71.9285 21.9725C71.1725 22.3085 70.2905 22.4765 69.2825 22.4765ZM75.9179 22.3145V9.53445H78.8519V22.3145H75.9179ZM87.6157 15.3665H93.0697V22.3145H90.7477L90.5317 21.1265C90.1237 21.6185 89.5957 21.9725 88.9477 22.1885C88.3117 22.3925 87.6397 22.4945 86.9317 22.4945C85.6597 22.4945 84.5557 22.2425 83.6197 21.7385C82.6957 21.2345 81.9757 20.5145 81.4597 19.5785C80.9557 18.6305 80.7037 17.4965 80.7037 16.1765C80.7037 14.8325 80.9917 13.6505 81.5677 12.6305C82.1557 11.5985 82.9837 10.7945 84.0517 10.2185C85.1197 9.64245 86.3737 9.35445 87.8137 9.35445C89.0257 9.35445 90.0457 9.57045 90.8737 10.0025C91.7137 10.4225 92.4157 11.0645 92.9797 11.9285L90.7297 13.5665C90.4297 13.0265 90.0157 12.6365 89.4877 12.3965C88.9597 12.1445 88.4017 12.0185 87.8137 12.0185C86.9737 12.0185 86.2537 12.1925 85.6537 12.5405C85.0537 12.8765 84.5857 13.3565 84.2497 13.9805C83.9257 14.5925 83.7637 15.3065 83.7637 16.1225C83.7637 17.3105 84.0757 18.2285 84.6997 18.8765C85.3237 19.5245 86.1817 19.8485 87.2737 19.8485C87.7057 19.8485 88.1377 19.7765 88.5697 19.6325C89.0017 19.4765 89.3677 19.2425 89.6677 18.9305C89.9797 18.6185 90.1657 18.2285 90.2257 17.7605H87.6157V15.3665ZM95.0781 22.3145V9.53445H98.0121V14.5925H103.358V9.53445H106.31V22.3145H103.358V17.1665H98.0121V22.3145H95.0781ZM118.565 9.53445L118.187 12.1085H114.317V22.3145H111.365V12.1085H107.315V9.53445H118.565ZM122.878 22.4765C121.306 22.4765 120.088 22.1405 119.224 21.4685C118.36 20.7965 117.868 19.8065 117.748 18.4985L120.502 18.1025C120.574 18.7265 120.82 19.2065 121.24 19.5425C121.66 19.8665 122.242 20.0285 122.986 20.0285C123.622 20.0285 124.108 19.9205 124.444 19.7045C124.792 19.4765 124.966 19.1585 124.966 18.7505C124.966 18.3785 124.786 18.0845 124.426 17.8685C124.066 17.6525 123.472 17.4485 122.644 17.2565C121.756 17.0405 121.006 16.7825 120.394 16.4825C119.782 16.1705 119.32 15.7685 119.008 15.2765C118.696 14.7845 118.54 14.1605 118.54 13.4045C118.54 12.6125 118.744 11.9105 119.152 11.2985C119.56 10.6865 120.13 10.2125 120.862 9.87645C121.594 9.52845 122.44 9.35445 123.4 9.35445C124.648 9.35445 125.668 9.67245 126.46 10.3085C127.252 10.9445 127.708 11.8145 127.828 12.9185L125.254 13.3505C125.158 12.8585 124.936 12.4805 124.588 12.2165C124.24 11.9405 123.802 11.8025 123.274 11.8025C122.746 11.8025 122.32 11.9285 121.996 12.1805C121.672 12.4205 121.51 12.7505 121.51 13.1705C121.51 13.5545 121.666 13.8665 121.978 14.1065C122.29 14.3345 122.86 14.5505 123.688 14.7545C124.564 14.9705 125.32 15.2165 125.956 15.4925C126.592 15.7565 127.078 16.1225 127.414 16.5905C127.762 17.0585 127.936 17.6945 127.936 18.4985C127.936 19.2785 127.726 19.9685 127.306 20.5685C126.886 21.1685 126.292 21.6365 125.524 21.9725C124.768 22.3085 123.886 22.4765 122.878 22.4765Z" fill="white"/>
</g>
<path d="M136.075 13.8145L141.076 18.3945L146.075 13.8145" stroke="#414141" stroke-width="2" stroke-linecap="round" stroke-linejoin="round"/>
<defs>
<clipPath id="clip0_1397_10937">
<rect width="128.68" height="30.6797" fill="white" transform="translate(0.395508 0.474609)"/>
</clipPath>
</defs>
</svg>
