<svg width="129" height="31" viewBox="0 0 129 31" fill="none" xmlns="http://www.w3.org/2000/svg">
<g clip-path="url(#clip0_3527_2063)">
<rect width="30.6797" height="30.6797" rx="15.3398" fill="#F26869"/>
<path fill-rule="evenodd" clip-rule="evenodd" d="M28.7186 18.524C30.594 16.7413 30.6601 13.8893 28.8881 12.0039C25.9602 8.88866 20.9849 4.71606 15.3397 4.71606C9.69452 4.71606 4.7192 8.88866 1.79133 12.0039C0.0192713 13.8893 0.085385 16.7413 1.9608 18.524C4.90891 21.3263 9.80201 24.9636 15.3397 24.9636C20.8774 24.9636 25.7705 21.3263 28.7186 18.524ZM15.3397 22.5251C19.3081 22.5251 22.5251 19.3081 22.5251 15.3397C22.5251 11.3713 19.3081 8.1543 15.3397 8.1543C11.3713 8.1543 8.1543 11.3713 8.1543 15.3397C8.1543 19.3081 11.3713 22.5251 15.3397 22.5251Z" fill="#FFCD83"/>
<path fill-rule="evenodd" clip-rule="evenodd" d="M14.9859 11.4804C15.1814 11.2849 15.4985 11.2849 15.694 11.4804L19.1993 14.9856C19.3948 15.1812 19.3948 15.4982 19.1993 15.6938L15.694 19.199C15.4985 19.3946 15.1814 19.3946 14.9859 19.199C14.7903 19.0035 14.7903 18.6864 14.9859 18.4909L17.6363 15.8405H11.8347C11.5582 15.8405 11.334 15.6163 11.334 15.3397C11.334 15.0632 11.5582 14.839 11.8347 14.839H17.6363L14.9859 12.1886C14.7903 11.993 14.7903 11.676 14.9859 11.4804Z" fill="#FFCD83"/>
<path d="M45.8857 21.8398V9.05984H48.8197V21.8398H45.8857ZM59.5094 9.05984H62.3354V21.8398H59.7254L54.0554 13.9018V21.8398H51.2294V9.05984H53.8394L59.5094 16.9978V9.05984ZM68.887 22.0018C67.315 22.0018 66.097 21.6658 65.233 20.9938C64.369 20.3218 63.877 19.3318 63.757 18.0238L66.511 17.6278C66.583 18.2518 66.829 18.7318 67.249 19.0678C67.669 19.3918 68.251 19.5538 68.995 19.5538C69.631 19.5538 70.117 19.4458 70.453 19.2298C70.801 19.0018 70.975 18.6838 70.975 18.2758C70.975 17.9038 70.795 17.6098 70.435 17.3938C70.075 17.1778 69.481 16.9738 68.653 16.7818C67.765 16.5658 67.015 16.3078 66.403 16.0078C65.791 15.6958 65.329 15.2938 65.017 14.8018C64.705 14.3098 64.549 13.6858 64.549 12.9298C64.549 12.1378 64.753 11.4358 65.161 10.8238C65.569 10.2118 66.139 9.73784 66.871 9.40184C67.603 9.05384 68.449 8.87984 69.409 8.87984C70.657 8.87984 71.677 9.19784 72.469 9.83384C73.261 10.4698 73.717 11.3398 73.837 12.4438L71.263 12.8758C71.167 12.3838 70.945 12.0058 70.597 11.7418C70.249 11.4658 69.811 11.3278 69.283 11.3278C68.755 11.3278 68.329 11.4538 68.005 11.7058C67.681 11.9458 67.519 12.2758 67.519 12.6958C67.519 13.0798 67.675 13.3918 67.987 13.6318C68.299 13.8598 68.869 14.0758 69.697 14.2798C70.573 14.4958 71.329 14.7418 71.965 15.0178C72.601 15.2818 73.087 15.6478 73.423 16.1158C73.771 16.5838 73.945 17.2198 73.945 18.0238C73.945 18.8038 73.735 19.4938 73.315 20.0938C72.895 20.6938 72.301 21.1618 71.533 21.4978C70.777 21.8338 69.895 22.0018 68.887 22.0018ZM75.5224 21.8398V9.05984H78.4564V21.8398H75.5224ZM87.2202 14.8918H92.6742V21.8398H90.3522L90.1362 20.6518C89.7282 21.1438 89.2002 21.4978 88.5522 21.7138C87.9162 21.9178 87.2442 22.0198 86.5362 22.0198C85.2642 22.0198 84.1602 21.7678 83.2242 21.2638C82.3002 20.7598 81.5802 20.0398 81.0642 19.1038C80.5602 18.1558 80.3082 17.0218 80.3082 15.7018C80.3082 14.3578 80.5962 13.1758 81.1722 12.1558C81.7602 11.1238 82.5882 10.3198 83.6562 9.74384C84.7242 9.16784 85.9782 8.87984 87.4182 8.87984C88.6302 8.87984 89.6502 9.09584 90.4782 9.52784C91.3182 9.94784 92.0202 10.5898 92.5842 11.4538L90.3342 13.0918C90.0342 12.5518 89.6202 12.1618 89.0922 11.9218C88.5642 11.6698 88.0062 11.5438 87.4182 11.5438C86.5782 11.5438 85.8582 11.7178 85.2582 12.0658C84.6582 12.4018 84.1902 12.8818 83.8542 13.5058C83.5302 14.1178 83.3682 14.8318 83.3682 15.6478C83.3682 16.8358 83.6802 17.7538 84.3042 18.4018C84.9282 19.0498 85.7862 19.3738 86.8782 19.3738C87.3102 19.3738 87.7422 19.3018 88.1742 19.1578C88.6062 19.0018 88.9722 18.7678 89.2722 18.4558C89.5842 18.1438 89.7702 17.7538 89.8302 17.2858H87.2202V14.8918ZM94.6826 21.8398V9.05984H97.6166V14.1178H102.963V9.05984H105.915V21.8398H102.963V16.6918H97.6166V21.8398H94.6826ZM118.169 9.05984L117.791 11.6338H113.921V21.8398H110.969V11.6338H106.919V9.05984H118.169ZM122.483 22.0018C120.911 22.0018 119.693 21.6658 118.829 20.9938C117.965 20.3218 117.473 19.3318 117.353 18.0238L120.107 17.6278C120.179 18.2518 120.425 18.7318 120.845 19.0678C121.265 19.3918 121.847 19.5538 122.591 19.5538C123.227 19.5538 123.713 19.4458 124.049 19.2298C124.397 19.0018 124.571 18.6838 124.571 18.2758C124.571 17.9038 124.391 17.6098 124.031 17.3938C123.671 17.1778 123.077 16.9738 122.249 16.7818C121.361 16.5658 120.611 16.3078 119.999 16.0078C119.387 15.6958 118.925 15.2938 118.613 14.8018C118.301 14.3098 118.145 13.6858 118.145 12.9298C118.145 12.1378 118.349 11.4358 118.757 10.8238C119.165 10.2118 119.735 9.73784 120.467 9.40184C121.199 9.05384 122.045 8.87984 123.005 8.87984C124.253 8.87984 125.273 9.19784 126.065 9.83384C126.857 10.4698 127.313 11.3398 127.433 12.4438L124.859 12.8758C124.763 12.3838 124.541 12.0058 124.193 11.7418C123.845 11.4658 123.407 11.3278 122.879 11.3278C122.351 11.3278 121.925 11.4538 121.601 11.7058C121.277 11.9458 121.115 12.2758 121.115 12.6958C121.115 13.0798 121.271 13.3918 121.583 13.6318C121.895 13.8598 122.465 14.0758 123.293 14.2798C124.169 14.4958 124.925 14.7418 125.561 15.0178C126.197 15.2818 126.683 15.6478 127.019 16.1158C127.367 16.5838 127.541 17.2198 127.541 18.0238C127.541 18.8038 127.331 19.4938 126.911 20.0938C126.491 20.6938 125.897 21.1618 125.129 21.4978C124.373 21.8338 123.491 22.0018 122.483 22.0018Z" fill="#363636"/>
</g>
<defs>
<clipPath id="clip0_3527_2063">
<rect width="128.68" height="30.6797" fill="white"/>
</clipPath>
</defs>
</svg>
